<?xml version="1.0" encoding="UTF-8" standalone="no"?>
<!DOCTYPE svg PUBLIC "-//W3C//DTD SVG 1.1//EN" "http://www.w3.org/Graphics/SVG/1.1/DTD/svg11.dtd">
<svg xmlns="http://www.w3.org/2000/svg" xmlns:xlink="http://www.w3.org/1999/xlink" version="1.1" width="1024pt" height="271pt" viewBox="0 0 1024 271">
<g enable-background="new">
<g id="Layer-1" data-name="Layer 1">
<clipPath id="cp0">
<path transform="matrix(1,0,0,-1,0,271)" d="M 0 271 L 1024 271 L 1024 0 L 0 0 Z "/>
</clipPath>
<g clip-path="url(#cp0)">
<path transform="matrix(1,0,0,-1,275.1443,143.0732)" d="M 0 0 C 0 6.244 1.459 11.619 4.377 16.126 C 7.295 20.63 11.388 24.111 16.662 26.568 C 21.935 29.026 28.051 30.254 35.015 30.254 C 41.361 30.254 46.916 29.229 51.677 27.183 C 56.438 25.133 60.251 22.268 63.118 18.583 C 66.087 22.369 69.899 25.263 74.559 27.259 C 79.217 29.256 84.669 30.254 90.915 30.254 C 97.876 30.254 103.968 29.026 109.19 26.568 C 114.411 24.111 118.481 20.63 121.399 16.126 C 124.316 11.619 125.776 6.244 125.776 0 L 125.776 -50.217 L 101.05 -50.217 L 101.05 -7.064 C 101.05 2.662 96.954 7.525 88.765 7.525 C 84.258 7.525 80.88 6.091 78.629 3.226 C 76.376 .358 75.251 -3.788 75.251 -9.214 L 75.251 -50.217 L 50.525 -50.217 L 50.525 -9.214 C 50.525 1.944 46.072 7.525 37.165 7.525 C 28.872 7.525 24.725 2.662 24.725 -7.064 L 24.725 -50.217 L 0 -50.217 Z " fill="#2b68e8"/>
<path transform="matrix(1,0,0,-1,443.3033,193.2906)" d="M 0 0 L -24.725 0 L -24.725 67.418 C -24.725 71 -23.6 73.714 -21.347 75.557 C -19.095 77.4 -15.921 78.321 -11.825 78.321 C -9.778 78.321 -7.731 78.116 -5.682 77.707 C -3.635 77.297 -1.742 76.733 0 76.018 Z M -22.114 89.609 C -24.674 92.321 -25.954 95.572 -25.954 99.361 C -25.954 103.251 -24.674 106.526 -22.114 109.19 C -19.556 111.85 -16.331 113.182 -12.439 113.182 C -8.446 113.182 -5.171 111.85 -2.611 109.19 C -.053 106.526 1.229 103.251 1.229 99.361 C 1.229 95.572 -.053 92.321 -2.611 89.609 C -5.171 86.895 -8.446 85.54 -12.439 85.54 C -16.331 85.54 -19.556 86.895 -22.114 89.609 " fill="#2b68e8"/>
<path transform="matrix(1,0,0,-1,487.9906,140.6158)" d="M 0 0 C -3.174 -3.378 -4.76 -7.577 -4.76 -12.592 C -4.76 -17.61 -3.174 -21.807 0 -25.185 C 3.173 -28.564 7.422 -30.253 12.747 -30.253 C 18.069 -30.253 22.319 -28.564 25.493 -25.185 C 28.666 -21.807 30.254 -17.61 30.254 -12.592 C 30.254 -7.577 28.666 -3.378 25.493 0 C 22.319 3.379 18.069 5.068 12.747 5.068 C 7.422 5.068 3.173 3.379 0 0 M 10.136 -84.924 C 6.04 -84.924 1.74 -84.591 -2.764 -83.927 C -7.27 -83.259 -11.363 -82.39 -15.049 -81.316 C -18.735 -80.241 -21.499 -79.14 -23.342 -78.014 L -16.585 -60.353 C -15.049 -61.172 -12.925 -61.966 -10.213 -62.734 C -7.501 -63.502 -4.556 -64.116 -1.382 -64.577 C 1.791 -65.037 4.761 -65.268 7.525 -65.268 C 14.59 -65.268 20.142 -63.502 24.188 -59.969 C 28.231 -56.437 30.254 -51.242 30.254 -44.382 L 30.254 -42.692 C 24.622 -48.324 17.148 -51.139 7.833 -51.139 C .562 -51.139 -5.939 -49.58 -11.671 -46.455 C -17.406 -43.333 -21.91 -38.956 -25.185 -33.325 C -28.463 -27.695 -30.1 -21.092 -30.1 -13.514 C -30.1 -5.734 -28.334 1.28 -24.801 7.525 C -21.269 13.769 -16.278 18.71 -9.828 22.345 C -3.378 25.977 4.248 27.797 13.054 27.797 C 21.55 27.797 28.949 26.055 35.246 22.576 C 41.541 19.093 46.404 14.076 49.834 7.525 C 53.264 .972 54.979 -6.963 54.979 -16.278 L 54.979 -39.007 C 54.979 -53.647 50.986 -64.96 43.001 -72.947 C 35.015 -80.932 24.059 -84.924 10.136 -84.924 " fill="#2b68e8"/>
<path transform="matrix(1,0,0,-1,558.0177,91.0117)" d="M 0 0 C 0 3.583 1.125 6.297 3.378 8.14 C 5.63 9.981 8.804 10.904 12.9 10.904 C 14.947 10.904 16.97 10.697 18.966 10.289 C 20.963 9.879 22.882 9.315 24.725 8.6 L 24.725 -28.718 C 29.947 -24.111 37.011 -21.807 45.918 -21.807 C 55.847 -21.807 63.656 -24.701 69.338 -30.484 C 75.02 -36.27 77.861 -44.332 77.861 -54.672 L 77.861 -102.279 L 53.136 -102.279 L 53.136 -59.74 C 53.136 -49.81 48.63 -44.843 39.622 -44.843 C 29.69 -44.843 24.725 -50.525 24.725 -61.89 L 24.725 -102.279 L 0 -102.279 Z " fill="#2b68e8"/>
<path transform="matrix(1,0,0,-1,652.7703,102.837207)" d="M 0 0 C 0 3.583 1.125 6.297 3.378 8.14 C 5.63 9.983 8.804 10.904 12.9 10.904 C 14.947 10.904 16.994 10.698 19.043 10.289 C 21.089 9.879 22.984 9.315 24.725 8.601 L 24.725 -12.132 L 42.385 -12.132 C 50.883 -12.132 55.132 -15.817 55.132 -23.189 C 55.132 -25.239 54.825 -27.362 54.211 -29.562 C 53.597 -31.765 52.879 -33.632 52.061 -35.168 L 24.725 -35.168 L 24.725 -59.278 C 24.725 -62.76 25.697 -65.448 27.643 -67.341 C 29.587 -69.236 32.404 -70.181 36.09 -70.181 C 38.341 -70.181 40.697 -69.85 43.154 -69.184 C 45.61 -68.518 47.658 -67.674 49.296 -66.65 L 58.971 -83.542 C 57.128 -85.181 54.645 -86.691 51.524 -88.073 C 48.399 -89.455 44.997 -90.554 41.311 -91.374 C 37.625 -92.193 33.939 -92.603 30.253 -92.603 C 21.244 -92.603 13.949 -90.096 8.37 -85.079 C 2.788 -80.063 0 -73.253 0 -64.654 Z " fill="#2b68e8"/>
<path transform="matrix(1,0,0,-1,799.2755,182.387)" d="M 0 0 C 0 -14.23 -3.839 -24.98 -11.518 -32.25 C -19.196 -39.518 -29.64 -43.153 -42.847 -43.153 C -46.84 -43.153 -51.039 -42.871 -55.44 -42.309 C -59.843 -41.745 -63.836 -41.004 -67.419 -40.083 C -71.004 -39.161 -73.614 -38.29 -75.251 -37.472 L -69.262 -19.35 C -68.033 -19.964 -66.139 -20.603 -63.579 -21.269 C -61.021 -21.935 -58.204 -22.471 -55.133 -22.882 C -52.062 -23.29 -49.143 -23.497 -46.379 -23.497 C -39.725 -23.497 -34.35 -22.088 -30.254 -19.273 C -26.161 -16.456 -24.111 -11.979 -24.111 -5.836 L -24.111 -1.69 C -25.853 -3.943 -28.488 -5.786 -32.02 -7.218 C -35.552 -8.653 -39.878 -9.368 -44.997 -9.368 C -51.346 -9.368 -57.028 -8.165 -62.043 -5.759 C -67.061 -3.355 -71.027 .077 -73.945 4.53 C -76.864 8.984 -78.322 14.282 -78.322 20.425 L -78.322 56.514 C -78.322 60.097 -77.197 62.811 -74.944 64.654 C -72.692 66.497 -69.518 67.418 -65.422 67.418 C -63.375 67.418 -61.302 67.212 -59.202 66.803 C -57.105 66.393 -55.235 65.829 -53.597 65.115 L -53.597 25.493 C -53.597 20.783 -52.345 17.301 -49.834 15.051 C -47.327 12.797 -43.821 11.671 -39.315 11.671 C -34.197 11.671 -30.484 13.053 -28.18 15.818 C -25.877 18.582 -24.725 22.626 -24.725 27.95 L -24.725 56.514 C -24.725 60.097 -23.6 62.811 -21.347 64.654 C -19.096 66.497 -15.922 67.418 -11.826 67.418 C -9.778 67.418 -7.705 67.212 -5.606 66.803 C -3.508 66.393 -1.64 65.829 0 65.115 Z " fill="#2b68e8"/>
<path transform="matrix(1,0,0,-1,816.1667,102.837207)" d="M 0 0 C 0 3.583 1.125 6.297 3.378 8.14 C 5.63 9.983 8.804 10.904 12.9 10.904 C 14.947 10.904 16.994 10.698 19.043 10.289 C 21.089 9.879 22.984 9.315 24.725 8.601 L 24.725 -12.132 L 42.386 -12.132 C 50.883 -12.132 55.132 -15.817 55.132 -23.189 C 55.132 -25.239 54.825 -27.362 54.211 -29.562 C 53.597 -31.765 52.879 -33.632 52.062 -35.168 L 24.725 -35.168 L 24.725 -59.278 C 24.725 -62.76 25.698 -65.448 27.643 -67.341 C 29.587 -69.236 32.404 -70.181 36.09 -70.181 C 38.341 -70.181 40.697 -69.85 43.154 -69.184 C 45.61 -68.518 47.658 -67.674 49.297 -66.65 L 58.971 -83.542 C 57.128 -85.181 54.646 -86.691 51.524 -88.073 C 48.399 -89.455 44.997 -90.554 41.311 -91.374 C 37.625 -92.193 33.939 -92.603 30.253 -92.603 C 21.244 -92.603 13.949 -90.096 8.37 -85.079 C 2.788 -80.063 0 -73.253 0 -64.654 Z " fill="#5c90ff"/>
<path transform="matrix(1,0,0,-1,909.8439,193.2906)" d="M 0 0 L -24.725 0 L -24.725 67.418 C -24.725 71 -23.6 73.714 -21.346 75.557 C -19.095 77.4 -15.922 78.321 -11.824 78.321 C -9.778 78.321 -7.731 78.116 -5.682 77.707 C -3.635 77.297 -1.742 76.733 0 76.018 Z M -22.115 89.609 C -24.674 92.321 -25.954 95.572 -25.954 99.361 C -25.954 103.251 -24.674 106.526 -22.115 109.19 C -19.556 111.85 -16.331 113.182 -12.439 113.182 C -8.446 113.182 -5.171 111.85 -2.611 109.19 C -.052 106.526 1.229 103.251 1.229 99.361 C 1.229 95.572 -.052 92.321 -2.611 89.609 C -5.171 86.895 -8.446 85.54 -12.439 85.54 C -16.331 85.54 -19.556 86.895 -22.115 89.609 " fill="#5c90ff"/>
<path transform="matrix(1,0,0,-1,1015.5,193.2906)" d="M 0 0 L -31.175 0 C -32.096 1.229 -33.532 2.995 -35.476 5.298 C -37.421 7.602 -39.572 10.083 -41.926 12.747 C -44.282 15.407 -46.533 17.916 -48.682 20.272 C -51.55 16.79 -54.518 13.154 -57.589 9.368 C -60.661 5.579 -63.171 2.457 -65.115 0 L -94.908 0 C -94.089 1.022 -92.196 3.353 -89.226 6.988 C -86.257 10.62 -82.621 15.024 -78.322 20.195 C -74.022 25.363 -69.518 30.764 -64.808 36.397 L -84.158 57.436 C -87.743 61.429 -89.532 65.268 -89.532 68.954 C -89.532 72.026 -88.304 74.353 -85.846 75.942 C -83.39 77.527 -80.422 78.321 -76.94 78.321 C -74.893 78.321 -72.769 78.064 -70.567 77.553 C -68.366 77.04 -66.65 76.479 -65.422 75.865 L -48.222 54.979 L -34.094 72.64 C -32.456 74.686 -30.511 76.145 -28.257 77.016 C -26.006 77.885 -23.65 78.321 -21.193 78.321 C -17.713 78.321 -14.385 77.605 -11.211 76.171 C -8.039 74.736 -5.836 73.151 -4.607 71.411 C -6.553 69.261 -10.059 65.138 -15.127 59.048 C -20.195 52.956 -26.006 45.968 -32.557 38.086 Z " fill="#5c90ff"/>
<path transform="matrix(1,0,0,-1,83.7676,66.6295)" d="M 0 0 L -6.326 3.143 L -2.135 11.577 L 4.19 8.434 Z " fill="#5c90ff"/>
<path transform="matrix(1,0,0,-1,106.4194,77.882999)" d="M 0 0 L -11.326 5.627 L -7.136 14.061 L 4.19 8.434 Z " fill="#5c90ff"/>
<path transform="matrix(1,0,0,-1,248.4073,108.952198)" d="M 0 0 L -13.998 13.998 C -15.485 15.485 -17.83 15.699 -19.546 14.484 C -27.78 8.655 -39.255 9.427 -46.629 16.801 C -54.003 24.175 -54.776 35.651 -48.946 43.884 C -47.731 45.6 -47.946 47.946 -49.433 49.433 L -63.43 63.43 C -69.636 69.636 -79.698 69.636 -85.904 63.43 L -213.471 -64.137 C -219.677 -70.343 -219.677 -80.405 -213.471 -86.611 L -199.474 -100.609 C -197.987 -102.095 -195.641 -102.31 -193.925 -101.095 C -185.692 -95.266 -174.216 -96.038 -166.842 -103.412 C -159.468 -110.786 -158.696 -122.262 -164.525 -130.495 C -165.74 -132.211 -165.526 -134.556 -164.039 -136.043 L -150.041 -150.041 C -143.835 -156.247 -133.773 -156.247 -127.567 -150.041 L 0 -22.474 C 6.206 -16.268 6.206 -6.206 0 0 M -6.659 -6.659 C -4.135 -9.183 -4.135 -13.291 -6.659 -15.815 L -134.226 -143.382 C -136.751 -145.906 -140.858 -145.906 -143.382 -143.382 L -154.569 -132.195 C -148.601 -120.562 -150.685 -106.251 -160.183 -96.753 C -169.681 -87.255 -183.993 -85.17 -195.625 -91.139 L -206.812 -79.952 C -209.336 -77.427 -209.336 -73.32 -206.812 -70.796 L -79.245 56.771 C -76.721 59.295 -72.614 59.295 -70.089 56.771 L -58.902 45.584 C -64.871 33.952 -62.787 19.64 -53.288 10.142 C -43.79 .644 -29.479 -1.441 -17.846 4.528 Z " fill="#2b68e8"/>
<path transform="matrix(1,0,0,-1,107.0833,237.9935)" d="M 0 0 C 3.784 14.184 -.158 29.57 -10.868 40.28 C -21.577 50.989 -36.963 54.931 -51.147 51.147 L -53.875 53.875 L 66.657 174.408 L 69.253 171.811 C 65.306 157.536 69.215 142.022 80.045 131.192 C 90.874 120.362 106.389 116.453 120.664 120.401 L 123.26 117.804 L 2.728 -2.728 Z " fill="#5c90ff"/>
<path transform="matrix(1,0,0,-1,140.1109,91.2216)" d="M 0 0 L -4.994 4.994 L 1.665 11.654 L 6.659 6.659 Z " fill="#5c90ff"/>
<path transform="matrix(1,0,0,-1,157.9959,109.1066)" d="M 0 0 L -8.943 8.943 L -2.283 15.602 L 6.659 6.659 Z M 17.885 -17.885 L 8.942 -8.942 L 15.601 -2.283 L 24.544 -11.225 Z M 35.77 -35.77 L 26.827 -26.827 L 33.486 -20.168 L 42.429 -29.11 Z " fill="#ffffff"/>
<path transform="matrix(1,0,0,-1,207.7022,158.8129)" d="M 0 0 L -4.994 4.994 L 1.665 11.654 L 6.659 6.659 Z " fill="#5c90ff"/>
<path transform="matrix(1,0,0,-1,124.8446,76.5211)" d="M 0 0 L -2.91 1.446 L -7.1 -6.988 L -7.025 -7.025 Z " fill="#5c90ff"/>
<path transform="matrix(1,0,0,-1,31.6064,198.89279)" d="M 0 0 C -1.515 1.515 -2.65 3.246 -3.594 5.053 L -10.092 8.281 C -10.729 8.597 -11.302 9.007 -11.793 9.499 C -13.76 11.466 -14.249 14.464 -13.009 16.959 L 67.258 178.526 C 68.846 181.723 72.739 183.032 75.936 181.443 L 90.107 174.403 C 88.689 164.929 91.809 155.253 98.715 148.347 C 101.05 146.012 103.743 144.078 106.72 142.599 C 108.302 141.813 109.925 141.194 111.566 140.7 L 119.777 148.911 C 116.786 148.981 113.767 149.614 110.91 151.033 C 108.804 152.079 106.95 153.43 105.374 155.006 C 99.962 160.418 97.836 168.483 100.083 175.966 C 100.55 177.518 100.092 179.154 98.995 180.251 C 98.669 180.577 98.286 180.856 97.855 181.07 L 80.126 189.877 C 72.266 193.782 62.729 190.576 58.824 182.716 L -21.443 21.149 C -24.56 14.875 -23.147 7.534 -18.453 2.84 C -17.266 1.653 -15.869 .635 -14.282 -.154 L 3.447 -8.961 C 5.066 -9.766 6.948 -9.421 8.243 -8.243 Z " fill="#2b68e8"/>
</g>
</g>
</g>
</svg>
